<mxfile host="app.diagrams.net" modified="2023-06-02T03:50:16.117Z" agent="Mozilla/5.0 (Windows NT 10.0; Win64; x64) AppleWebKit/537.36 (KHTML, like Gecko) Chrome/113.0.0.0 Safari/537.36" etag="H1OjTKsOUXRxHYbqeLxc" version="21.3.6" type="device">
  <diagram name="第 1 页" id="YsqTuxnZJYxWrGOKA6Da">
    <mxGraphModel dx="2901" dy="1124" grid="1" gridSize="10" guides="1" tooltips="1" connect="1" arrows="1" fold="1" page="1" pageScale="1" pageWidth="827" pageHeight="1169" math="0" shadow="0">
      <root>
        <mxCell id="0" />
        <mxCell id="1" parent="0" />
        <mxCell id="ccCqu93BCbUQ60HL_qAw-1" value="&lt;i&gt;Glyph&lt;/i&gt;" style="swimlane;fontStyle=1;align=center;verticalAlign=top;childLayout=stackLayout;horizontal=1;startSize=26;horizontalStack=0;resizeParent=1;resizeParentMax=0;resizeLast=0;collapsible=1;marginBottom=0;whiteSpace=wrap;html=1;" vertex="1" parent="1">
          <mxGeometry x="300" y="500" width="160" height="80" as="geometry" />
        </mxCell>
        <mxCell id="ccCqu93BCbUQ60HL_qAw-3" value="" style="line;strokeWidth=1;fillColor=none;align=left;verticalAlign=middle;spacingTop=-1;spacingLeft=3;spacingRight=3;rotatable=0;labelPosition=right;points=[];portConstraint=eastwest;strokeColor=inherit;" vertex="1" parent="ccCqu93BCbUQ60HL_qAw-1">
          <mxGeometry y="26" width="160" height="8" as="geometry" />
        </mxCell>
        <mxCell id="ccCqu93BCbUQ60HL_qAw-4" value="+ Draw(Context)&lt;br&gt;+ Intersecte(Point,Context)" style="text;strokeColor=none;fillColor=none;align=left;verticalAlign=top;spacingLeft=4;spacingRight=4;overflow=hidden;rotatable=0;points=[[0,0.5],[1,0.5]];portConstraint=eastwest;whiteSpace=wrap;html=1;" vertex="1" parent="ccCqu93BCbUQ60HL_qAw-1">
          <mxGeometry y="34" width="160" height="46" as="geometry" />
        </mxCell>
        <mxCell id="ccCqu93BCbUQ60HL_qAw-5" value="Column" style="swimlane;fontStyle=1;align=center;verticalAlign=top;childLayout=stackLayout;horizontal=1;startSize=26;horizontalStack=0;resizeParent=1;resizeParentMax=0;resizeLast=0;collapsible=1;marginBottom=0;whiteSpace=wrap;html=1;" vertex="1" parent="1">
          <mxGeometry x="490" y="670" width="160" height="74" as="geometry" />
        </mxCell>
        <mxCell id="ccCqu93BCbUQ60HL_qAw-7" value="" style="line;strokeWidth=1;fillColor=none;align=left;verticalAlign=middle;spacingTop=-1;spacingLeft=3;spacingRight=3;rotatable=0;labelPosition=right;points=[];portConstraint=eastwest;strokeColor=inherit;" vertex="1" parent="ccCqu93BCbUQ60HL_qAw-5">
          <mxGeometry y="26" width="160" height="8" as="geometry" />
        </mxCell>
        <mxCell id="ccCqu93BCbUQ60HL_qAw-8" value="+ Draw(Context)&lt;br&gt;+ Intersecte(Point,Context)" style="text;strokeColor=none;fillColor=none;align=left;verticalAlign=top;spacingLeft=4;spacingRight=4;overflow=hidden;rotatable=0;points=[[0,0.5],[1,0.5]];portConstraint=eastwest;whiteSpace=wrap;html=1;" vertex="1" parent="ccCqu93BCbUQ60HL_qAw-5">
          <mxGeometry y="34" width="160" height="40" as="geometry" />
        </mxCell>
        <mxCell id="ccCqu93BCbUQ60HL_qAw-9" value="Character" style="swimlane;fontStyle=1;align=center;verticalAlign=top;childLayout=stackLayout;horizontal=1;startSize=26;horizontalStack=0;resizeParent=1;resizeParentMax=0;resizeLast=0;collapsible=1;marginBottom=0;whiteSpace=wrap;html=1;" vertex="1" parent="1">
          <mxGeometry x="290" y="670" width="160" height="100" as="geometry" />
        </mxCell>
        <mxCell id="ccCqu93BCbUQ60HL_qAw-10" value="- char c" style="text;strokeColor=none;fillColor=none;align=left;verticalAlign=top;spacingLeft=4;spacingRight=4;overflow=hidden;rotatable=0;points=[[0,0.5],[1,0.5]];portConstraint=eastwest;whiteSpace=wrap;html=1;" vertex="1" parent="ccCqu93BCbUQ60HL_qAw-9">
          <mxGeometry y="26" width="160" height="26" as="geometry" />
        </mxCell>
        <mxCell id="ccCqu93BCbUQ60HL_qAw-11" value="" style="line;strokeWidth=1;fillColor=none;align=left;verticalAlign=middle;spacingTop=-1;spacingLeft=3;spacingRight=3;rotatable=0;labelPosition=right;points=[];portConstraint=eastwest;strokeColor=inherit;" vertex="1" parent="ccCqu93BCbUQ60HL_qAw-9">
          <mxGeometry y="52" width="160" height="8" as="geometry" />
        </mxCell>
        <mxCell id="ccCqu93BCbUQ60HL_qAw-12" value="+ Draw(Context)&lt;br&gt;+ Intersecte(Point,Context)" style="text;strokeColor=none;fillColor=none;align=left;verticalAlign=top;spacingLeft=4;spacingRight=4;overflow=hidden;rotatable=0;points=[[0,0.5],[1,0.5]];portConstraint=eastwest;whiteSpace=wrap;html=1;" vertex="1" parent="ccCqu93BCbUQ60HL_qAw-9">
          <mxGeometry y="60" width="160" height="40" as="geometry" />
        </mxCell>
        <mxCell id="ccCqu93BCbUQ60HL_qAw-13" value="Row" style="swimlane;fontStyle=1;align=center;verticalAlign=top;childLayout=stackLayout;horizontal=1;startSize=26;horizontalStack=0;resizeParent=1;resizeParentMax=0;resizeLast=0;collapsible=1;marginBottom=0;whiteSpace=wrap;html=1;" vertex="1" parent="1">
          <mxGeometry x="90" y="670" width="160" height="74" as="geometry" />
        </mxCell>
        <mxCell id="ccCqu93BCbUQ60HL_qAw-15" value="" style="line;strokeWidth=1;fillColor=none;align=left;verticalAlign=middle;spacingTop=-1;spacingLeft=3;spacingRight=3;rotatable=0;labelPosition=right;points=[];portConstraint=eastwest;strokeColor=inherit;" vertex="1" parent="ccCqu93BCbUQ60HL_qAw-13">
          <mxGeometry y="26" width="160" height="8" as="geometry" />
        </mxCell>
        <mxCell id="ccCqu93BCbUQ60HL_qAw-16" value="+ Draw(Context)&lt;br&gt;+ Intersecte(Point,Context)" style="text;strokeColor=none;fillColor=none;align=left;verticalAlign=top;spacingLeft=4;spacingRight=4;overflow=hidden;rotatable=0;points=[[0,0.5],[1,0.5]];portConstraint=eastwest;whiteSpace=wrap;html=1;" vertex="1" parent="ccCqu93BCbUQ60HL_qAw-13">
          <mxGeometry y="34" width="160" height="40" as="geometry" />
        </mxCell>
        <mxCell id="ccCqu93BCbUQ60HL_qAw-17" value="Extends" style="endArrow=block;endSize=16;endFill=0;html=1;rounded=0;exitX=0.438;exitY=0;exitDx=0;exitDy=0;exitPerimeter=0;" edge="1" parent="1" source="ccCqu93BCbUQ60HL_qAw-13" target="ccCqu93BCbUQ60HL_qAw-4">
          <mxGeometry width="160" relative="1" as="geometry">
            <mxPoint x="290" y="690" as="sourcePoint" />
            <mxPoint x="450" y="690" as="targetPoint" />
          </mxGeometry>
        </mxCell>
        <mxCell id="ccCqu93BCbUQ60HL_qAw-18" value="Extends" style="endArrow=block;endSize=16;endFill=0;html=1;rounded=0;" edge="1" parent="1" source="ccCqu93BCbUQ60HL_qAw-9" target="ccCqu93BCbUQ60HL_qAw-4">
          <mxGeometry width="160" relative="1" as="geometry">
            <mxPoint x="170" y="680" as="sourcePoint" />
            <mxPoint x="345" y="590" as="targetPoint" />
          </mxGeometry>
        </mxCell>
        <mxCell id="ccCqu93BCbUQ60HL_qAw-19" value="Extends" style="endArrow=block;endSize=16;endFill=0;html=1;rounded=0;exitX=0.57;exitY=-0.016;exitDx=0;exitDy=0;exitPerimeter=0;" edge="1" parent="1" source="ccCqu93BCbUQ60HL_qAw-5" target="ccCqu93BCbUQ60HL_qAw-4">
          <mxGeometry width="160" relative="1" as="geometry">
            <mxPoint x="180" y="690" as="sourcePoint" />
            <mxPoint x="355" y="600" as="targetPoint" />
          </mxGeometry>
        </mxCell>
        <mxCell id="ccCqu93BCbUQ60HL_qAw-20" value="chiildren" style="endArrow=open;html=1;endSize=12;startArrow=diamondThin;startSize=14;startFill=1;edgeStyle=orthogonalEdgeStyle;align=left;verticalAlign=bottom;rounded=0;entryX=0.008;entryY=0.165;entryDx=0;entryDy=0;entryPerimeter=0;exitX=0;exitY=0.15;exitDx=0;exitDy=0;exitPerimeter=0;" edge="1" parent="1" source="ccCqu93BCbUQ60HL_qAw-16" target="ccCqu93BCbUQ60HL_qAw-4">
          <mxGeometry x="-0.8499" y="20" relative="1" as="geometry">
            <mxPoint x="190" y="680" as="sourcePoint" />
            <mxPoint x="350" y="680" as="targetPoint" />
            <mxPoint as="offset" />
          </mxGeometry>
        </mxCell>
        <mxCell id="ccCqu93BCbUQ60HL_qAw-22" value="chiildren" style="endArrow=open;html=1;endSize=12;startArrow=diamondThin;startSize=14;startFill=1;edgeStyle=orthogonalEdgeStyle;align=left;verticalAlign=bottom;rounded=0;entryX=1.025;entryY=0.061;entryDx=0;entryDy=0;entryPerimeter=0;exitX=1.02;exitY=0.15;exitDx=0;exitDy=0;exitPerimeter=0;" edge="1" parent="1" source="ccCqu93BCbUQ60HL_qAw-8" target="ccCqu93BCbUQ60HL_qAw-4">
          <mxGeometry x="-0.8499" y="20" relative="1" as="geometry">
            <mxPoint x="660" y="710" as="sourcePoint" />
            <mxPoint x="851" y="540" as="targetPoint" />
            <Array as="points">
              <mxPoint x="680" y="710" />
              <mxPoint x="680" y="537" />
            </Array>
            <mxPoint as="offset" />
          </mxGeometry>
        </mxCell>
        <mxCell id="ccCqu93BCbUQ60HL_qAw-23" value="Client" style="html=1;whiteSpace=wrap;" vertex="1" parent="1">
          <mxGeometry x="-60" y="1690" width="110" height="50" as="geometry" />
        </mxCell>
        <mxCell id="ccCqu93BCbUQ60HL_qAw-24" value="FlyweightFactory" style="swimlane;fontStyle=1;align=center;verticalAlign=top;childLayout=stackLayout;horizontal=1;startSize=26;horizontalStack=0;resizeParent=1;resizeParentMax=0;resizeLast=0;collapsible=1;marginBottom=0;whiteSpace=wrap;html=1;" vertex="1" parent="1">
          <mxGeometry x="120" y="1230" width="160" height="60" as="geometry" />
        </mxCell>
        <mxCell id="ccCqu93BCbUQ60HL_qAw-26" value="" style="line;strokeWidth=1;fillColor=none;align=left;verticalAlign=middle;spacingTop=-1;spacingLeft=3;spacingRight=3;rotatable=0;labelPosition=right;points=[];portConstraint=eastwest;strokeColor=inherit;" vertex="1" parent="ccCqu93BCbUQ60HL_qAw-24">
          <mxGeometry y="26" width="160" height="8" as="geometry" />
        </mxCell>
        <mxCell id="ccCqu93BCbUQ60HL_qAw-27" value="+ GetFlyweight(key)" style="text;strokeColor=none;fillColor=none;align=left;verticalAlign=top;spacingLeft=4;spacingRight=4;overflow=hidden;rotatable=0;points=[[0,0.5],[1,0.5]];portConstraint=eastwest;whiteSpace=wrap;html=1;" vertex="1" parent="ccCqu93BCbUQ60HL_qAw-24">
          <mxGeometry y="34" width="160" height="26" as="geometry" />
        </mxCell>
        <mxCell id="ccCqu93BCbUQ60HL_qAw-28" value="Flyweight" style="swimlane;fontStyle=1;align=center;verticalAlign=top;childLayout=stackLayout;horizontal=1;startSize=26;horizontalStack=0;resizeParent=1;resizeParentMax=0;resizeLast=0;collapsible=1;marginBottom=0;whiteSpace=wrap;html=1;" vertex="1" parent="1">
          <mxGeometry x="580" y="1240" width="160" height="60" as="geometry" />
        </mxCell>
        <mxCell id="ccCqu93BCbUQ60HL_qAw-30" value="" style="line;strokeWidth=1;fillColor=none;align=left;verticalAlign=middle;spacingTop=-1;spacingLeft=3;spacingRight=3;rotatable=0;labelPosition=right;points=[];portConstraint=eastwest;strokeColor=inherit;" vertex="1" parent="ccCqu93BCbUQ60HL_qAw-28">
          <mxGeometry y="26" width="160" height="8" as="geometry" />
        </mxCell>
        <mxCell id="ccCqu93BCbUQ60HL_qAw-31" value="+ Operation(extrinsicState)" style="text;strokeColor=none;fillColor=none;align=left;verticalAlign=top;spacingLeft=4;spacingRight=4;overflow=hidden;rotatable=0;points=[[0,0.5],[1,0.5]];portConstraint=eastwest;whiteSpace=wrap;html=1;" vertex="1" parent="ccCqu93BCbUQ60HL_qAw-28">
          <mxGeometry y="34" width="160" height="26" as="geometry" />
        </mxCell>
        <mxCell id="ccCqu93BCbUQ60HL_qAw-32" value="ConcreteFlyweight" style="swimlane;fontStyle=1;align=center;verticalAlign=top;childLayout=stackLayout;horizontal=1;startSize=26;horizontalStack=0;resizeParent=1;resizeParentMax=0;resizeLast=0;collapsible=1;marginBottom=0;whiteSpace=wrap;html=1;" vertex="1" parent="1">
          <mxGeometry x="480" y="1630" width="160" height="86" as="geometry" />
        </mxCell>
        <mxCell id="ccCqu93BCbUQ60HL_qAw-33" value="- intrinalcState" style="text;strokeColor=none;fillColor=none;align=left;verticalAlign=top;spacingLeft=4;spacingRight=4;overflow=hidden;rotatable=0;points=[[0,0.5],[1,0.5]];portConstraint=eastwest;whiteSpace=wrap;html=1;" vertex="1" parent="ccCqu93BCbUQ60HL_qAw-32">
          <mxGeometry y="26" width="160" height="26" as="geometry" />
        </mxCell>
        <mxCell id="ccCqu93BCbUQ60HL_qAw-34" value="" style="line;strokeWidth=1;fillColor=none;align=left;verticalAlign=middle;spacingTop=-1;spacingLeft=3;spacingRight=3;rotatable=0;labelPosition=right;points=[];portConstraint=eastwest;strokeColor=inherit;" vertex="1" parent="ccCqu93BCbUQ60HL_qAw-32">
          <mxGeometry y="52" width="160" height="8" as="geometry" />
        </mxCell>
        <mxCell id="ccCqu93BCbUQ60HL_qAw-35" value="+ Operation(extrinsicState)" style="text;strokeColor=none;fillColor=none;align=left;verticalAlign=top;spacingLeft=4;spacingRight=4;overflow=hidden;rotatable=0;points=[[0,0.5],[1,0.5]];portConstraint=eastwest;whiteSpace=wrap;html=1;" vertex="1" parent="ccCqu93BCbUQ60HL_qAw-32">
          <mxGeometry y="60" width="160" height="26" as="geometry" />
        </mxCell>
        <mxCell id="ccCqu93BCbUQ60HL_qAw-36" value="UnsharedConcreteFlyweight" style="swimlane;fontStyle=1;align=center;verticalAlign=top;childLayout=stackLayout;horizontal=1;startSize=26;horizontalStack=0;resizeParent=1;resizeParentMax=0;resizeLast=0;collapsible=1;marginBottom=0;whiteSpace=wrap;html=1;" vertex="1" parent="1">
          <mxGeometry x="740" y="1700" width="180" height="86" as="geometry" />
        </mxCell>
        <mxCell id="ccCqu93BCbUQ60HL_qAw-37" value="- allState" style="text;strokeColor=none;fillColor=none;align=left;verticalAlign=top;spacingLeft=4;spacingRight=4;overflow=hidden;rotatable=0;points=[[0,0.5],[1,0.5]];portConstraint=eastwest;whiteSpace=wrap;html=1;" vertex="1" parent="ccCqu93BCbUQ60HL_qAw-36">
          <mxGeometry y="26" width="180" height="26" as="geometry" />
        </mxCell>
        <mxCell id="ccCqu93BCbUQ60HL_qAw-38" value="" style="line;strokeWidth=1;fillColor=none;align=left;verticalAlign=middle;spacingTop=-1;spacingLeft=3;spacingRight=3;rotatable=0;labelPosition=right;points=[];portConstraint=eastwest;strokeColor=inherit;" vertex="1" parent="ccCqu93BCbUQ60HL_qAw-36">
          <mxGeometry y="52" width="180" height="8" as="geometry" />
        </mxCell>
        <mxCell id="ccCqu93BCbUQ60HL_qAw-39" value="+ Operation(extrinsicState)" style="text;strokeColor=none;fillColor=none;align=left;verticalAlign=top;spacingLeft=4;spacingRight=4;overflow=hidden;rotatable=0;points=[[0,0.5],[1,0.5]];portConstraint=eastwest;whiteSpace=wrap;html=1;" vertex="1" parent="ccCqu93BCbUQ60HL_qAw-36">
          <mxGeometry y="60" width="180" height="26" as="geometry" />
        </mxCell>
        <mxCell id="ccCqu93BCbUQ60HL_qAw-40" value="Extends" style="endArrow=block;endSize=16;endFill=0;html=1;rounded=0;entryX=0.528;entryY=0.949;entryDx=0;entryDy=0;entryPerimeter=0;exitX=0.601;exitY=0.016;exitDx=0;exitDy=0;exitPerimeter=0;" edge="1" parent="1" source="ccCqu93BCbUQ60HL_qAw-32" target="ccCqu93BCbUQ60HL_qAw-31">
          <mxGeometry width="160" relative="1" as="geometry">
            <mxPoint x="620" y="1570" as="sourcePoint" />
            <mxPoint x="780" y="1570" as="targetPoint" />
          </mxGeometry>
        </mxCell>
        <mxCell id="ccCqu93BCbUQ60HL_qAw-41" value="Extends" style="endArrow=block;endSize=16;endFill=0;html=1;rounded=0;entryX=0.625;entryY=1.154;entryDx=0;entryDy=0;entryPerimeter=0;exitX=0.5;exitY=0;exitDx=0;exitDy=0;" edge="1" parent="1" source="ccCqu93BCbUQ60HL_qAw-36" target="ccCqu93BCbUQ60HL_qAw-31">
          <mxGeometry width="160" relative="1" as="geometry">
            <mxPoint x="576" y="1411" as="sourcePoint" />
            <mxPoint x="674" y="1335" as="targetPoint" />
          </mxGeometry>
        </mxCell>
        <mxCell id="ccCqu93BCbUQ60HL_qAw-42" value="1" style="endArrow=open;html=1;endSize=12;startArrow=diamondThin;startSize=14;startFill=0;align=left;verticalAlign=bottom;rounded=0;exitX=0.997;exitY=0.942;exitDx=0;exitDy=0;exitPerimeter=0;" edge="1" parent="1">
          <mxGeometry x="-1" y="3" relative="1" as="geometry">
            <mxPoint x="279.52" y="1280.4920000000002" as="sourcePoint" />
            <mxPoint x="580" y="1279.3137089991592" as="targetPoint" />
          </mxGeometry>
        </mxCell>
        <mxCell id="ccCqu93BCbUQ60HL_qAw-43" value="" style="endArrow=block;dashed=1;endFill=0;endSize=12;html=1;rounded=0;exitX=0.825;exitY=0.981;exitDx=0;exitDy=0;exitPerimeter=0;" edge="1" parent="1" source="ccCqu93BCbUQ60HL_qAw-27" target="ccCqu93BCbUQ60HL_qAw-44">
          <mxGeometry width="160" relative="1" as="geometry">
            <mxPoint x="290" y="1410" as="sourcePoint" />
            <mxPoint x="470" y="1480" as="targetPoint" />
          </mxGeometry>
        </mxCell>
        <mxCell id="ccCqu93BCbUQ60HL_qAw-44" value="if(flyweight[key] exists) {&lt;br&gt;return existing flyweight;&lt;br&gt;}&lt;br&gt;else {&lt;br&gt;Create new flyweight;&lt;br&gt;return the new flyweight;&lt;br&gt;}" style="html=1;whiteSpace=wrap;" vertex="1" parent="1">
          <mxGeometry x="260" y="1340" width="110" height="190" as="geometry" />
        </mxCell>
        <mxCell id="ccCqu93BCbUQ60HL_qAw-45" value="1" style="endArrow=open;html=1;endSize=12;startArrow=diamondThin;startSize=14;startFill=1;edgeStyle=orthogonalEdgeStyle;align=left;verticalAlign=bottom;rounded=0;entryX=0;entryY=0.5;entryDx=0;entryDy=0;" edge="1" parent="1" source="ccCqu93BCbUQ60HL_qAw-23">
          <mxGeometry x="-1" y="3" relative="1" as="geometry">
            <mxPoint x="280" y="1680" as="sourcePoint" />
            <mxPoint x="120" y="1269" as="targetPoint" />
          </mxGeometry>
        </mxCell>
        <mxCell id="ccCqu93BCbUQ60HL_qAw-46" value="1" style="endArrow=open;html=1;endSize=12;startArrow=diamondThin;startSize=14;startFill=0;edgeStyle=orthogonalEdgeStyle;align=left;verticalAlign=bottom;rounded=0;entryX=-0.012;entryY=0.769;entryDx=0;entryDy=0;entryPerimeter=0;exitX=1;exitY=0.75;exitDx=0;exitDy=0;" edge="1" parent="1" source="ccCqu93BCbUQ60HL_qAw-23" target="ccCqu93BCbUQ60HL_qAw-33">
          <mxGeometry x="-1" y="3" relative="1" as="geometry">
            <mxPoint x="510" y="1770" as="sourcePoint" />
            <mxPoint x="670" y="1770" as="targetPoint" />
          </mxGeometry>
        </mxCell>
        <mxCell id="ccCqu93BCbUQ60HL_qAw-47" value="1" style="endArrow=open;html=1;endSize=12;startArrow=diamondThin;startSize=14;startFill=0;edgeStyle=orthogonalEdgeStyle;align=left;verticalAlign=bottom;rounded=0;entryX=0.006;entryY=0.923;entryDx=0;entryDy=0;entryPerimeter=0;" edge="1" parent="1" source="ccCqu93BCbUQ60HL_qAw-23" target="ccCqu93BCbUQ60HL_qAw-37">
          <mxGeometry x="-1" y="3" relative="1" as="geometry">
            <mxPoint x="270" y="1730" as="sourcePoint" />
            <mxPoint x="730" y="1860" as="targetPoint" />
            <Array as="points">
              <mxPoint x="-5" y="1810" />
              <mxPoint x="670" y="1810" />
              <mxPoint x="670" y="1750" />
            </Array>
          </mxGeometry>
        </mxCell>
        <mxCell id="ccCqu93BCbUQ60HL_qAw-48" value="flyweights" style="text;html=1;align=center;verticalAlign=middle;resizable=0;points=[];autosize=1;strokeColor=none;fillColor=none;" vertex="1" parent="1">
          <mxGeometry x="270" y="1238" width="80" height="30" as="geometry" />
        </mxCell>
      </root>
    </mxGraphModel>
  </diagram>
</mxfile>
